<svg xmlns="http://www.w3.org/2000/svg" xmlns:xlink="http://www.w3.org/1999/xlink" id="Layer_1" x="0" y="0" version="1.1" viewBox="0 0 512 512" xml:space="preserve" style="enable-background:new 0 0 512 512"><path style="fill:#ff6464" d="M256,512C114.844,512,0,397.156,0,256S114.844,0,256,0s256,114.844,256,256S397.156,512,256,512z"/><path style="fill:#d2555a" d="M375.467,426.667c-141.156,0-256-114.844-256-256c0-59.087,20.318-113.41,54.071-156.783	C72.768,48.311,0,143.72,0,256c0,141.156,114.844,256,256,256c82.069,0,155.049-38.974,201.929-99.217	C432.012,421.638,404.342,426.667,375.467,426.667z"/><g><path style="fill:#fff" d="M141.241,388.414c-4.518,0-9.038-1.725-12.483-5.173c-6.897-6.892-6.897-18.073,0-24.966 l229.517-229.517c6.888-6.897,18.078-6.897,24.966,0c6.897,6.892,6.897,18.073,0,24.966L153.724,383.241 C150.28,386.689,145.759,388.414,141.241,388.414z"/><path style="fill:#fff" d="M176.552,238.345c-34.073,0-61.793-27.72-61.793-61.793s27.72-61.793,61.793-61.793 s61.793,27.72,61.793,61.793S210.625,238.345,176.552,238.345z M176.552,150.069c-14.603,0-26.483,11.88-26.483,26.483 s11.88,26.483,26.483,26.483s26.483-11.88,26.483-26.483S191.155,150.069,176.552,150.069z"/><path style="fill:#fff" d="M335.448,397.241c-34.073,0-61.793-27.72-61.793-61.793s27.72-61.793,61.793-61.793 s61.793,27.72,61.793,61.793S369.522,397.241,335.448,397.241z M335.448,308.966c-14.603,0-26.483,11.88-26.483,26.483 c0,14.603,11.88,26.483,26.483,26.483c14.603,0,26.483-11.88,26.483-26.483C361.931,320.845,350.051,308.966,335.448,308.966z"/></g></svg>