<svg xmlns="http://www.w3.org/2000/svg" xmlns:xlink="http://www.w3.org/1999/xlink" id="Layer_1" x="0" y="0" version="1.1" viewBox="0 0 512 512" xml:space="preserve" style="enable-background:new 0 0 512 512"><g><path style="fill:#afb9d2" d="M353.103,44.138L353.103,44.138c-4.875,0-8.828,3.953-8.828,8.828v97.103h17.655V52.966 C361.931,48.09,357.978,44.138,353.103,44.138z"/><path style="fill:#afb9d2" d="M388.414,79.448L388.414,79.448c-4.875,0-8.828,3.953-8.828,8.828v97.103h17.655V88.276 C397.241,83.401,393.289,79.448,388.414,79.448z"/></g><path style="fill:#c7cfe2" d="M326.621,132.414h114.759c4.875,0,8.828,3.953,8.828,8.828v361.931H326.621V132.414z"/><g><rect style="fill:#afb9d2" width="123.586" height="35.31" x="326.621" y="467.862"/><rect style="fill:#afb9d2" width="132.414" height="17.655" x="317.793" y="432.552"/></g><g><rect style="fill:#8f96ac" width="17.655" height="17.655" x="414.897" y="432.552"/><rect style="fill:#8f96ac" width="17.655" height="17.655" x="344.276" y="432.552"/><rect style="fill:#8f96ac" width="17.655" height="17.655" x="379.586" y="432.552"/></g><rect style="fill:#afb9d2" width="132.414" height="17.655" x="317.793" y="397.241"/><g><rect style="fill:#8f96ac" width="17.655" height="17.655" x="414.897" y="397.241"/><rect style="fill:#8f96ac" width="17.655" height="17.655" x="344.276" y="397.241"/><rect style="fill:#8f96ac" width="17.655" height="17.655" x="379.586" y="397.241"/></g><rect style="fill:#afb9d2" width="132.414" height="17.655" x="317.793" y="361.931"/><g><rect style="fill:#8f96ac" width="17.655" height="17.655" x="414.897" y="361.931"/><rect style="fill:#8f96ac" width="17.655" height="17.655" x="344.276" y="361.931"/><rect style="fill:#8f96ac" width="17.655" height="17.655" x="379.586" y="361.931"/></g><rect style="fill:#afb9d2" width="132.414" height="17.655" x="317.793" y="326.621"/><g><rect style="fill:#8f96ac" width="17.655" height="17.655" x="414.897" y="326.621"/><rect style="fill:#8f96ac" width="17.655" height="17.655" x="344.276" y="326.621"/><rect style="fill:#8f96ac" width="17.655" height="17.655" x="379.586" y="326.621"/></g><rect style="fill:#afb9d2" width="132.414" height="17.655" x="317.793" y="291.31"/><g><rect style="fill:#8f96ac" width="17.655" height="17.655" x="414.897" y="291.31"/><rect style="fill:#8f96ac" width="17.655" height="17.655" x="344.276" y="291.31"/><rect style="fill:#8f96ac" width="17.655" height="17.655" x="379.586" y="291.31"/></g><rect style="fill:#afb9d2" width="132.414" height="17.655" x="317.793" y="256"/><g><rect style="fill:#8f96ac" width="17.655" height="17.655" x="414.897" y="256"/><rect style="fill:#8f96ac" width="17.655" height="17.655" x="344.276" y="256"/><rect style="fill:#8f96ac" width="17.655" height="17.655" x="379.586" y="256"/></g><rect style="fill:#afb9d2" width="132.414" height="17.655" x="317.793" y="220.69"/><g><rect style="fill:#8f96ac" width="17.655" height="17.655" x="414.897" y="220.69"/><rect style="fill:#8f96ac" width="17.655" height="17.655" x="344.276" y="220.69"/><rect style="fill:#8f96ac" width="17.655" height="17.655" x="379.586" y="220.69"/></g><rect style="fill:#afb9d2" width="132.414" height="17.655" x="317.793" y="185.379"/><g><rect style="fill:#8f96ac" width="17.655" height="17.655" x="414.897" y="185.379"/><rect style="fill:#8f96ac" width="17.655" height="17.655" x="344.276" y="185.379"/><rect style="fill:#8f96ac" width="17.655" height="17.655" x="379.586" y="185.379"/></g><rect style="fill:#afb9d2" width="132.414" height="17.655" x="317.793" y="150.069"/><g><rect style="fill:#8f96ac" width="17.655" height="17.655" x="414.897" y="150.069"/><rect style="fill:#8f96ac" width="17.655" height="17.655" x="344.276" y="150.069"/><rect style="fill:#8f96ac" width="17.655" height="17.655" x="379.586" y="150.069"/></g><path style="fill:#afb9d2" d="M326.621,503.172H61.793V8.828C61.793,3.953,65.746,0,70.621,0h247.172	c4.875,0,8.828,3.953,8.828,8.828V503.172z"/><path style="fill:#8f96ac" d="M88.276,414.897L88.276,414.897c-4.875,0-8.828-3.953-8.828-8.828V52.966	c0-4.875,3.953-8.828,8.828-8.828l0,0c4.875,0,8.828,3.953,8.828,8.828v353.103C97.103,410.944,93.151,414.897,88.276,414.897z"/><rect style="fill:#9fa7bf" width="264.828" height="70.621" x="61.793" y="432.552"/><path style="fill:#707487" d="M97.103,494.345v-35.31c0-4.875-3.953-8.828-8.828-8.828c-4.875,0-8.828,3.953-8.828,8.828v35.31	H97.103z"/><path style="fill:#8f96ac" d="M123.586,414.897L123.586,414.897c-4.875,0-8.828-3.953-8.828-8.828V52.966	c0-4.875,3.953-8.828,8.828-8.828l0,0c4.875,0,8.828,3.953,8.828,8.828v353.103C132.414,410.944,128.461,414.897,123.586,414.897z"/><path style="fill:#707487" d="M132.414,494.345v-35.31c0-4.875-3.953-8.828-8.828-8.828c-4.875,0-8.828,3.953-8.828,8.828v35.31	H132.414z"/><path style="fill:#8f96ac" d="M158.897,414.897L158.897,414.897c-4.875,0-8.828-3.953-8.828-8.828V52.966	c0-4.875,3.953-8.828,8.828-8.828l0,0c4.875,0,8.828,3.953,8.828,8.828v353.103C167.724,410.944,163.772,414.897,158.897,414.897z"/><path style="fill:#707487" d="M167.724,494.345v-35.31c0-4.875-3.953-8.828-8.828-8.828c-4.875,0-8.828,3.953-8.828,8.828v35.31	H167.724z"/><path style="fill:#8f96ac" d="M194.207,414.897L194.207,414.897c-4.875,0-8.828-3.953-8.828-8.828V52.966	c0-4.875,3.953-8.828,8.828-8.828l0,0c4.875,0,8.828,3.953,8.828,8.828v353.103C203.034,410.944,199.082,414.897,194.207,414.897z"/><path style="fill:#707487" d="M203.034,494.345v-35.31c0-4.875-3.953-8.828-8.828-8.828s-8.828,3.953-8.828,8.828v35.31H203.034z"/><path style="fill:#8f96ac" d="M229.517,414.897L229.517,414.897c-4.875,0-8.828-3.953-8.828-8.828V52.966	c0-4.875,3.953-8.828,8.828-8.828l0,0c4.875,0,8.828,3.953,8.828,8.828v353.103C238.345,410.944,234.392,414.897,229.517,414.897z"/><path style="fill:#707487" d="M238.345,494.345v-35.31c0-4.875-3.953-8.828-8.828-8.828s-8.828,3.953-8.828,8.828v35.31H238.345z"/><path style="fill:#8f96ac" d="M264.828,414.897L264.828,414.897c-4.875,0-8.828-3.953-8.828-8.828V52.966	c0-4.875,3.953-8.828,8.828-8.828l0,0c4.875,0,8.828,3.953,8.828,8.828v353.103C273.655,410.944,269.703,414.897,264.828,414.897z"/><path style="fill:#707487" d="M273.655,494.345v-35.31c0-4.875-3.953-8.828-8.828-8.828S256,454.159,256,459.034v35.31H273.655z"/><path style="fill:#8f96ac" d="M300.138,414.897L300.138,414.897c-4.875,0-8.828-3.953-8.828-8.828V52.966	c0-4.875,3.953-8.828,8.828-8.828l0,0c4.875,0,8.828,3.953,8.828,8.828v353.103C308.966,410.944,305.013,414.897,300.138,414.897z"/><g><path style="fill:#707487" d="M308.966,494.345v-35.31c0-4.875-3.953-8.828-8.828-8.828s-8.828,3.953-8.828,8.828v35.31H308.966z"/><rect style="fill:#707487" width="17.655" height="17.655" x="79.448" y="379.586"/><rect style="fill:#707487" width="17.655" height="17.655" x="114.759" y="379.586"/><rect style="fill:#707487" width="17.655" height="17.655" x="150.069" y="379.586"/><rect style="fill:#707487" width="17.655" height="17.655" x="185.379" y="379.586"/><rect style="fill:#707487" width="17.655" height="17.655" x="220.69" y="379.586"/><rect style="fill:#707487" width="17.655" height="17.655" x="256" y="379.586"/><rect style="fill:#707487" width="17.655" height="17.655" x="291.31" y="379.586"/><rect style="fill:#707487" width="17.655" height="17.655" x="79.448" y="326.621"/><rect style="fill:#707487" width="17.655" height="17.655" x="114.759" y="326.621"/><rect style="fill:#707487" width="17.655" height="17.655" x="150.069" y="326.621"/><rect style="fill:#707487" width="17.655" height="17.655" x="185.379" y="326.621"/><rect style="fill:#707487" width="17.655" height="17.655" x="220.69" y="326.621"/><rect style="fill:#707487" width="17.655" height="17.655" x="256" y="326.621"/><rect style="fill:#707487" width="17.655" height="17.655" x="291.31" y="326.621"/><rect style="fill:#707487" width="17.655" height="17.655" x="79.448" y="273.655"/><rect style="fill:#707487" width="17.655" height="17.655" x="114.759" y="273.655"/><rect style="fill:#707487" width="17.655" height="17.655" x="150.069" y="273.655"/><rect style="fill:#707487" width="17.655" height="17.655" x="185.379" y="273.655"/><rect style="fill:#707487" width="17.655" height="17.655" x="220.69" y="273.655"/><rect style="fill:#707487" width="17.655" height="17.655" x="256" y="273.655"/><rect style="fill:#707487" width="17.655" height="17.655" x="291.31" y="273.655"/><rect style="fill:#707487" width="17.655" height="17.655" x="79.448" y="220.69"/><rect style="fill:#707487" width="17.655" height="17.655" x="114.759" y="220.69"/><rect style="fill:#707487" width="17.655" height="17.655" x="150.069" y="220.69"/><rect style="fill:#707487" width="17.655" height="17.655" x="185.379" y="220.69"/><rect style="fill:#707487" width="17.655" height="17.655" x="220.69" y="220.69"/><rect style="fill:#707487" width="17.655" height="17.655" x="256" y="220.69"/><rect style="fill:#707487" width="17.655" height="17.655" x="291.31" y="220.69"/><rect style="fill:#707487" width="17.655" height="17.655" x="79.448" y="167.724"/><rect style="fill:#707487" width="17.655" height="17.655" x="114.759" y="167.724"/><rect style="fill:#707487" width="17.655" height="17.655" x="150.069" y="167.724"/><rect style="fill:#707487" width="17.655" height="17.655" x="185.379" y="167.724"/><rect style="fill:#707487" width="17.655" height="17.655" x="220.69" y="167.724"/><rect style="fill:#707487" width="17.655" height="17.655" x="256" y="167.724"/><rect style="fill:#707487" width="17.655" height="17.655" x="291.31" y="167.724"/><rect style="fill:#707487" width="17.655" height="17.655" x="79.448" y="114.759"/><rect style="fill:#707487" width="17.655" height="17.655" x="114.759" y="114.759"/><rect style="fill:#707487" width="17.655" height="17.655" x="150.069" y="114.759"/><rect style="fill:#707487" width="17.655" height="17.655" x="185.379" y="114.759"/><rect style="fill:#707487" width="17.655" height="17.655" x="220.69" y="114.759"/><rect style="fill:#707487" width="17.655" height="17.655" x="256" y="114.759"/><rect style="fill:#707487" width="17.655" height="17.655" x="291.31" y="114.759"/><rect style="fill:#707487" width="17.655" height="17.655" x="79.448" y="61.793"/><rect style="fill:#707487" width="17.655" height="17.655" x="114.759" y="61.793"/><rect style="fill:#707487" width="17.655" height="17.655" x="150.069" y="61.793"/><rect style="fill:#707487" width="17.655" height="17.655" x="185.379" y="61.793"/><rect style="fill:#707487" width="17.655" height="17.655" x="220.69" y="61.793"/><rect style="fill:#707487" width="17.655" height="17.655" x="256" y="61.793"/><rect style="fill:#707487" width="17.655" height="17.655" x="291.31" y="61.793"/></g><g><path style="fill:#8f96ac" d="M326.621,26.483H61.793V8.828C61.793,3.953,65.746,0,70.621,0h247.172 c4.875,0,8.828,3.953,8.828,8.828V26.483z"/><path style="fill:#8f96ac" d="M459.034,512H52.966c-4.875,0-8.828-3.953-8.828-8.828l0,0c0-4.875,3.953-8.828,8.828-8.828h406.069 c4.875,0,8.828,3.953,8.828,8.828l0,0C467.862,508.047,463.91,512,459.034,512z"/></g></svg>