<svg xmlns="http://www.w3.org/2000/svg" xmlns:xlink="http://www.w3.org/1999/xlink" id="Layer_1" x="0" y="0" version="1.1" viewBox="0 0 512 512" xml:space="preserve" style="enable-background:new 0 0 512 512"><g><path style="fill:#e1c3a0" d="M44.138,476.69H26.483c-4.875,0-8.828-3.953-8.828-8.828v-26.483h35.31v26.483 C52.966,472.737,49.013,476.69,44.138,476.69z"/><path style="fill:#e1c3a0" d="M485.517,476.69h-17.655c-4.875,0-8.828-3.953-8.828-8.828v-26.483h35.31v26.483 C494.345,472.737,490.392,476.69,485.517,476.69z"/></g><path style="fill:#f0dcbe" d="M494.345,459.034H17.655C7.904,459.034,0,451.13,0,441.379V52.966C0,43.214,7.904,35.31,17.655,35.31	h476.69c9.751,0,17.655,7.904,17.655,17.655v388.414C512,451.129,504.095,459.034,494.345,459.034z"/><g><path style="fill:#ebd2af" d="M467.862,229.517H44.138c-4.875,0-8.828-3.953-8.828-8.828V79.448c0-4.875,3.953-8.828,8.828-8.828 h423.724c4.875,0,8.828,3.953,8.828,8.828V220.69C476.69,225.565,472.737,229.517,467.862,229.517z"/><path style="fill:#ebd2af" d="M467.862,423.724H44.138c-4.875,0-8.828-3.953-8.828-8.828V273.655c0-4.875,3.953-8.828,8.828-8.828 h423.724c4.875,0,8.828,3.953,8.828,8.828v141.241C476.69,419.772,472.737,423.724,467.862,423.724z"/></g><g><path style="fill:#b99678" d="M335.448,70.621H176.552l12.776,25.55c2.99,5.982,9.103,9.76,15.791,9.76h101.763 c6.687,0,12.801-3.778,15.791-9.76L335.448,70.621z"/><path style="fill:#b99678" d="M335.448,264.828H176.552l12.776,25.55c2.99,5.982,9.103,9.76,15.791,9.76h101.763 c6.687,0,12.801-3.778,15.791-9.76L335.448,264.828z"/></g><path style="fill:#eff2fa" d="M244.587,240.93c-3.447-3.448-9.036-3.448-12.483,0l-45,45l2.225,4.448	c2.99,5.981,9.103,9.76,15.791,9.76h98.676L244.587,240.93z"/><path style="fill:#afb9d2" d="M176.552,264.828l12.776,25.55c2.99,5.982,9.105,9.76,15.791,9.76h65.768l-90.861-90.861	c-3.447-3.447-9.037-3.447-12.484,0l-55.552,55.551H176.552z"/></svg>