<svg xmlns="http://www.w3.org/2000/svg" xmlns:xlink="http://www.w3.org/1999/xlink" id="Layer_1" x="0" y="0" version="1.1" viewBox="0 0 512 512" xml:space="preserve" style="enable-background:new 0 0 512 512"><path style="fill:#ebd2af" d="M485.517,441.379H26.483c-9.751,0-17.655-7.904-17.655-17.655V150.069h494.345v273.655	C503.172,433.474,495.267,441.379,485.517,441.379z"/><rect style="fill:#e1c3a0" width="494.345" height="26.483" x="8.828" y="150.069"/><path style="fill:#f0dcbe" d="M503.172,158.897H8.828c-4.875,0-8.828-3.953-8.828-8.828V88.276c0-9.751,7.904-17.655,17.655-17.655	h476.69c9.751,0,17.655,7.904,17.655,17.655v61.793C512,154.944,508.047,158.897,503.172,158.897z"/><path style="fill:#b99678" d="M317.793,194.207H194.207c-9.751,0-17.655,7.904-17.655,17.655l0,0	c0,9.751,7.904,17.655,17.655,17.655h123.586c9.751,0,17.655-7.904,17.655-17.655l0,0	C335.448,202.111,327.543,194.207,317.793,194.207z"/></svg>