<svg xmlns="http://www.w3.org/2000/svg" xmlns:xlink="http://www.w3.org/1999/xlink" id="Layer_1" x="0" y="0" version="1.1" viewBox="0 0 512 512" xml:space="preserve" style="enable-background:new 0 0 512 512"><rect style="fill:#ebd2af" width="360.296" height="360.296" x="75.852" y="75.852"/><g><rect style="fill:#d2b493" width="360.296" height="18.963" x="75.852" y="75.852"/><rect style="fill:#d2b493" width="360.296" height="18.963" x="75.852" y="246.519"/><rect style="fill:#d2b493" width="360.296" height="18.963" x="75.852" y="161.185"/><rect style="fill:#d2b493" width="360.296" height="18.963" x="75.852" y="331.852"/><rect style="fill:#d2b493" width="360.296" height="18.963" x="75.852" y="417.185"/></g><path style="fill:#f0dcbe" d="M0,66.37V9.481C0,4.245,4.245,0,9.481,0h493.037C507.755,0,512,4.245,512,9.481V66.37	c0,5.236-4.245,9.481-9.481,9.481H9.481C4.245,75.852,0,71.607,0,66.37z"/><g><rect style="fill:#ebd2af" width="28.444" height="75.852" x="66.37"/><rect style="fill:#ebd2af" width="28.444" height="75.852" x="417.185"/></g><path style="fill:#f0dcbe" d="M0,502.519V445.63c0-5.236,4.245-9.481,9.481-9.481h493.037c5.236,0,9.481,4.245,9.481,9.481v56.889	c0,5.236-4.245,9.481-9.481,9.481H9.481C4.245,512,0,507.755,0,502.519z"/><g><rect style="fill:#ebd2af" width="28.444" height="75.852" x="66.37" y="436.148"/><rect style="fill:#ebd2af" width="28.444" height="75.852" x="417.185" y="436.148"/></g><g><path style="fill:#f0dcbe" d="M66.37,512H9.481C4.245,512,0,507.755,0,502.519V9.481C0,4.245,4.245,0,9.481,0H66.37 c5.236,0,9.481,4.245,9.481,9.481v493.037C75.852,507.755,71.607,512,66.37,512z"/><path style="fill:#f0dcbe" d="M502.519,512H445.63c-5.236,0-9.481-4.245-9.481-9.481V9.481c0-5.236,4.245-9.481,9.481-9.481 h56.889C507.755,0,512,4.245,512,9.481v493.037C512,507.755,507.755,512,502.519,512z"/></g><g><circle style="fill:#d2b493" cx="37.926" cy="37.926" r="9.481"/><circle style="fill:#d2b493" cx="37.926" cy="474.074" r="9.481"/><circle style="fill:#d2b493" cx="474.074" cy="37.926" r="9.481"/><circle style="fill:#d2b493" cx="474.074" cy="474.074" r="9.481"/><circle style="fill:#d2b493" cx="407.704" cy="384" r="9.481"/><circle style="fill:#d2b493" cx="407.704" cy="298.667" r="9.481"/><circle style="fill:#d2b493" cx="407.704" cy="213.333" r="9.481"/><circle style="fill:#d2b493" cx="407.704" cy="128" r="9.481"/><circle style="fill:#d2b493" cx="109.037" cy="384" r="9.481"/><circle style="fill:#d2b493" cx="109.037" cy="298.667" r="9.481"/><circle style="fill:#d2b493" cx="109.037" cy="213.333" r="9.481"/><circle style="fill:#d2b493" cx="109.037" cy="128" r="9.481"/></g></svg>