<svg xmlns="http://www.w3.org/2000/svg" xmlns:xlink="http://www.w3.org/1999/xlink" id="Layer_1" x="0" y="0" version="1.1" viewBox="0 0 512 512" xml:space="preserve" style="enable-background:new 0 0 512 512"><rect style="fill:#ffc36e" width="26.448" height="423.17" x="172.245" y="26.448"/><rect style="fill:#ffd782" width="26.448" height="423.17" x="198.693" y="26.448"/><path style="fill:#eff2fa" d="M225.146,26.448H172.25V8.816c0-4.869,3.947-8.816,8.816-8.816h35.264	c4.869,0,8.816,3.947,8.816,8.816V26.448z"/><g><path style="fill:#d7deed" d="M198.698,26.448H172.25V8.816c0-4.869,3.947-8.816,8.816-8.816h17.632V26.448z"/><polygon style="fill:#d7deed" points="198.698 491.85 198.698 449.618 172.25 449.618 188.087 491.85"/></g><polygon style="fill:#eff2fa" points="209.309 491.85 225.146 449.618 198.698 449.618 198.698 491.85"/><path style="fill:#707487" d="M202.825,509.139l9.097-24.257h-26.448l9.097,24.257	C196.001,512.953,201.396,512.953,202.825,509.139z"/><rect style="fill:#ffc36e" width="52.896" height="18.302" x="172.245" y="26.448"/><rect style="fill:#ffaa5a" width="26.448" height="18.302" x="172.245" y="26.448"/><path style="fill:#ff6464" d="M330.938,149.873H260.41c-4.869,0-8.816,3.947-8.816,8.816v202.769c0,4.869,3.947,8.816,8.816,8.816	h70.528c4.869,0,8.816-3.947,8.816-8.816V158.689C339.754,153.82,335.807,149.873,330.938,149.873z"/><path style="fill:#d2555a" d="M330.938,370.273H260.41c-4.869,0-8.816-3.947-8.816-8.816v-17.632c0-4.869,3.947-8.816,8.816-8.816	h70.528c4.869,0,8.816,3.947,8.816,8.816v17.632C339.754,366.326,335.807,370.273,330.938,370.273z"/><path style="fill:#18bdf6" d="M339.754,220.401h-88.16v-61.712c0-4.869,3.947-8.816,8.816-8.816h70.528	c4.869,0,8.816,3.947,8.816,8.816V220.401z"/><rect style="fill:#d7deed" width="88.16" height="8.816" x="251.59" y="348.233"/></svg>